<svg xmlns="http://www.w3.org/2000/svg" width="80" height="80" viewBox="0 0 64 64">
  <g>
    <path d="M57.2 18.98h-7.06v-5.95a8.723 8.723 0 0 0-8.71-8.71H23.59a8.723 8.723 0 0 0-8.71 8.71v5.95H6.8A4.81 4.81 0 0 0 2 23.79v31.08a4.81 4.81 0 0 0 4.8 4.81h50.4a4.81 4.81 0 0 0 4.8-4.81V23.79a4.814 4.814 0 0 0-4.8-4.81zm-33.13 0v-5.47h16.88v5.47zm2.94 15.86 10.05.07v3.99a.068.068 0 0 1-.07.07l-10.05-.07zM16.88 13.03a6.717 6.717 0 0 1 6.71-6.71h17.84a6.717 6.717 0 0 1 6.71 6.71v5.95h-5.19v-5.95a1.519 1.519 0 0 0-1.52-1.52H23.59a1.519 1.519 0 0 0-1.52 1.52v5.95h-5.19zM60 54.87a2.81 2.81 0 0 1-2.8 2.81H6.8A2.81 2.81 0 0 1 4 54.87V34.2a111.831 111.831 0 0 0 20.94 3.32v1.38a2.068 2.068 0 0 0 2.07 2.07h9.98a2.068 2.068 0 0 0 2.07-2.07v-1.39A112.075 112.075 0 0 0 60 34.2z" fill="#228522"/>
    <path d="M15.226 53.308h-3.3a1 1 0 1 0 0 2h3.3a1 1 0 0 0 0-2zM20.129 54.308a1 1 0 0 0 1 1H39.9a1 1 0 0 0 0-2H21.129a1 1 0 0 0-1 1z" fill="#228522"/>
  </g>
</svg>
