<svg xmlns="http://www.w3.org/2000/svg" version="1.1" xmlns:xlink="http://www.w3.org/1999/xlink" width="80" height="80" x="0" y="0" viewBox="0 0 64 64" style="enable-background:new 0 0 64 64" xml:space="preserve" class=""><g><defs><clipPath id="a" clipPathUnits="userSpaceOnUse"><path d="M0 512h512V0H0Z" fill="#228522" opacity="1" data-original="#000000" class=""></path></clipPath></defs><path d="M17.602 7.5h371.74v395.983H17.602Z" style="fill-opacity:1;fill-rule:nonzero;stroke:none" transform="matrix(1.33333 0 0 -1.33333 0 682.667)" fill="#eff3f5" data-original="#eff3f5" class="" opacity="0.0784313725490196"></path><g clip-path="url(#a)" transform="matrix(1.33333 0 0 -1.33333 0 682.667)"><path d="M0 0v-21.213h340.425c5.579 0 10.101-4.522 10.101-10.101v-364.669h21.214V0Z" style="fill-opacity:1;fill-rule:nonzero;stroke:none" transform="translate(17.602 403.483)" fill="#e7eeef" data-original="#c9e2e7" class="" opacity="0.09019607843137255"></path><path d="M0 0v112.251" style="stroke-width:15;stroke-linecap:round;stroke-linejoin:round;stroke-miterlimit:10;stroke-dasharray:none;stroke-opacity:1" transform="translate(389.341 291.232)" fill="none" stroke="#228522" stroke-width="15" stroke-linecap="round" stroke-linejoin="round" stroke-miterlimit="10" stroke-dasharray="none" stroke-opacity="" data-original="#000000" opacity="1" class=""></path><path d="M0 0v-146.429h371.74v248.5" style="stroke-width:15;stroke-linecap:round;stroke-linejoin:round;stroke-miterlimit:10;stroke-dasharray:none;stroke-opacity:1" transform="translate(17.602 153.929)" fill="none" stroke="#228522" stroke-width="15" stroke-linecap="round" stroke-linejoin="round" stroke-miterlimit="10" stroke-dasharray="none" stroke-opacity="" data-original="#000000" opacity="1" class=""></path><path d="M0 0v-214.466" style="stroke-width:15;stroke-linecap:round;stroke-linejoin:round;stroke-miterlimit:10;stroke-dasharray:none;stroke-opacity:1" transform="translate(17.602 403.483)" fill="none" stroke="#228522" stroke-width="15" stroke-linecap="round" stroke-linejoin="round" stroke-miterlimit="10" stroke-dasharray="none" stroke-opacity="" data-original="#000000" opacity="1" class=""></path><path d="M389.341 403.483H17.601v70.712h371.74z" style="fill-opacity:1;fill-rule:nonzero;stroke:none" fill="#dee8ed" data-original="#fba615" class="" opacity="0"></path><path d="M0 0c17.267 0 31.315 14.048 31.315 31.315v15.153h-62.63V31.315C-31.315 14.048-17.267 0 0 0" style="fill-opacity:1;fill-rule:nonzero;stroke:none" transform="translate(70.635 427.728)" fill="#4fa4cf" data-original="#f88604" class="" opacity="0.0784313725490196"></path><path d="M0 0c17.267 0 31.315 14.048 31.315 31.315v15.153h-62.63V31.315C-31.315 14.048-17.267 0 0 0" style="fill-opacity:1;fill-rule:nonzero;stroke:none" transform="translate(269.89 427.728)" fill="#4fa4cf" data-original="#f88604" class="" opacity="0.0784313725490196"></path><path d="M0 0c17.267 0 31.315 14.048 31.315 31.315v15.153h-62.63V31.315C-31.315 14.048-17.267 0 0 0" style="fill-opacity:1;fill-rule:nonzero;stroke:none" transform="translate(137.053 427.728)" fill="#4fa4cf" data-original="#f88604" class="" opacity="0.0784313725490196"></path><path d="M0 0v-15.152C0-32.42 14.048-46.468 31.315-46.468c17.267 0 31.315 14.048 31.315 31.316V0Z" style="fill-opacity:1;fill-rule:nonzero;stroke:none" transform="translate(304.993 474.195)" fill="#4fa4cf" data-original="#f88604" class="" opacity="0.0784313725490196"></path><path d="M0 0c17.267 0 31.315 14.048 31.315 31.315v15.153h-62.63V31.315C-31.315 14.048-17.267 0 0 0" style="fill-opacity:1;fill-rule:nonzero;stroke:none" transform="translate(203.472 427.728)" fill="#4fa4cf" data-original="#f88604" class="" opacity="0.0784313725490196"></path><path d="M0 0h-36.12" style="stroke-width:15;stroke-linecap:round;stroke-linejoin:round;stroke-miterlimit:10;stroke-dasharray:none;stroke-opacity:1" transform="translate(321.16 474.2)" fill="none" stroke="#228522" stroke-width="15" stroke-linecap="round" stroke-linejoin="round" stroke-miterlimit="10" stroke-dasharray="none" stroke-opacity="" data-original="#000000" opacity="1" class=""></path><path d="M0 0h-36.11" style="stroke-width:15;stroke-linecap:round;stroke-linejoin:round;stroke-miterlimit:10;stroke-dasharray:none;stroke-opacity:1" transform="translate(188.32 474.2)" fill="none" stroke="#228522" stroke-width="15" stroke-linecap="round" stroke-linejoin="round" stroke-miterlimit="10" stroke-dasharray="none" stroke-opacity="" data-original="#000000" opacity="1" class=""></path><path d="M0 0h37.88v-70.72h-371.74V0h37.88" style="stroke-width:15;stroke-linecap:round;stroke-linejoin:round;stroke-miterlimit:10;stroke-dasharray:none;stroke-opacity:1" transform="translate(351.46 474.2)" fill="none" stroke="#228522" stroke-width="15" stroke-linecap="round" stroke-linejoin="round" stroke-miterlimit="10" stroke-dasharray="none" stroke-opacity="" data-original="#000000" opacity="1" class=""></path><path d="M0 0h-36.11" style="stroke-width:15;stroke-linecap:round;stroke-linejoin:round;stroke-miterlimit:10;stroke-dasharray:none;stroke-opacity:1" transform="translate(121.9 474.2)" fill="none" stroke="#228522" stroke-width="15" stroke-linecap="round" stroke-linejoin="round" stroke-miterlimit="10" stroke-dasharray="none" stroke-opacity="" data-original="#000000" opacity="1" class=""></path><path d="M0 0h-36.12" style="stroke-width:15;stroke-linecap:round;stroke-linejoin:round;stroke-miterlimit:10;stroke-dasharray:none;stroke-opacity:1" transform="translate(254.74 474.2)" fill="none" stroke="#228522" stroke-width="15" stroke-linecap="round" stroke-linejoin="round" stroke-miterlimit="10" stroke-dasharray="none" stroke-opacity="" data-original="#000000" opacity="1" class=""></path><path d="M0 0h-.305c-8.284 0-15 6.716-15 15v30.609c0 8.285 6.716 15 15 15H0c8.284 0 15-6.715 15-15V15C15 6.716 8.284 0 0 0" style="fill-opacity:1;fill-rule:nonzero;stroke:none" transform="translate(70.788 443.89)" fill="#cbcbcb" data-original="#cbcbcb" class=""></path><path d="M0 0h-.305c-8.284 0-15 6.716-15 15v30.609c0 8.285 6.716 15 15 15H0c8.284 0 15-6.715 15-15V15C15 6.716 8.284 0 0 0Z" style="stroke-width:15;stroke-linecap:round;stroke-linejoin:round;stroke-miterlimit:10;stroke-dasharray:none;stroke-opacity:1" transform="translate(70.788 443.89)" fill="none" stroke="#228522" stroke-width="15" stroke-linecap="round" stroke-linejoin="round" stroke-miterlimit="10" stroke-dasharray="none" stroke-opacity="" data-original="#000000" opacity="1" class=""></path><path d="M0 0h-.305c-8.284 0-15 6.716-15 15v30.609c0 8.285 6.716 15 15 15H0c8.284 0 15-6.715 15-15V15C15 6.716 8.284 0 0 0" style="fill-opacity:1;fill-rule:nonzero;stroke:none" transform="translate(203.624 443.89)" fill="#cbcbcb" data-original="#cbcbcb" class=""></path><path d="M0 0h-.305c-8.284 0-15 6.716-15 15v30.609c0 8.285 6.716 15 15 15H0c8.284 0 15-6.715 15-15V15C15 6.716 8.284 0 0 0Z" style="stroke-width:15;stroke-linecap:round;stroke-linejoin:round;stroke-miterlimit:10;stroke-dasharray:none;stroke-opacity:1" transform="translate(203.624 443.89)" fill="none" stroke="#228522" stroke-width="15" stroke-linecap="round" stroke-linejoin="round" stroke-miterlimit="10" stroke-dasharray="none" stroke-opacity="" data-original="#000000" opacity="1" class=""></path><path d="M0 0h-.305c-8.284 0-15 6.716-15 15v30.609c0 8.285 6.716 15 15 15H0c8.285 0 15-6.715 15-15V15C15 6.716 8.285 0 0 0" style="fill-opacity:1;fill-rule:nonzero;stroke:none" transform="translate(137.206 443.89)" fill="#cbcbcb" data-original="#cbcbcb" class=""></path><path d="M0 0h-.305c-8.284 0-15 6.716-15 15v30.609c0 8.285 6.716 15 15 15H0c8.285 0 15-6.715 15-15V15C15 6.716 8.285 0 0 0Z" style="stroke-width:15;stroke-linecap:round;stroke-linejoin:round;stroke-miterlimit:10;stroke-dasharray:none;stroke-opacity:1" transform="translate(137.206 443.89)" fill="none" stroke="#228522" stroke-width="15" stroke-linecap="round" stroke-linejoin="round" stroke-miterlimit="10" stroke-dasharray="none" stroke-opacity="" data-original="#000000" opacity="1" class=""></path><path d="M0 0h.305c8.284 0 15 6.716 15 15v30.609c0 8.285-6.716 15-15 15H0c-8.284 0-15-6.715-15-15V15C-15 6.716-8.284 0 0 0" style="fill-opacity:1;fill-rule:nonzero;stroke:none" transform="translate(336.155 443.89)" fill="#cbcbcb" data-original="#cbcbcb" class=""></path><path d="M0 0h.305c8.284 0 15 6.716 15 15v30.609c0 8.285-6.716 15-15 15H0c-8.284 0-15-6.715-15-15V15C-15 6.716-8.284 0 0 0Z" style="stroke-width:15;stroke-linecap:round;stroke-linejoin:round;stroke-miterlimit:10;stroke-dasharray:none;stroke-opacity:1" transform="translate(336.155 443.89)" fill="none" stroke="#228522" stroke-width="15" stroke-linecap="round" stroke-linejoin="round" stroke-miterlimit="10" stroke-dasharray="none" stroke-opacity="" data-original="#000000" opacity="1" class=""></path><path d="M0 0h.305c8.284 0 15 6.716 15 15v30.609c0 8.285-6.716 15-15 15H0c-8.284 0-15-6.715-15-15V15C-15 6.716-8.284 0 0 0" style="fill-opacity:1;fill-rule:nonzero;stroke:none" transform="translate(269.737 443.89)" fill="#cbcbcb" data-original="#cbcbcb" class=""></path><path d="M0 0h.305c8.284 0 15 6.716 15 15v30.609c0 8.285-6.716 15-15 15H0c-8.284 0-15-6.715-15-15V15C-15 6.716-8.284 0 0 0Z" style="stroke-width:15;stroke-linecap:round;stroke-linejoin:round;stroke-miterlimit:10;stroke-dasharray:none;stroke-opacity:1" transform="translate(269.737 443.89)" fill="none" stroke="#228522" stroke-width="15" stroke-linecap="round" stroke-linejoin="round" stroke-miterlimit="10" stroke-dasharray="none" stroke-opacity="" data-original="#000000" opacity="1" class=""></path><path d="M0 0c-5.917-5.917-15.512-5.917-21.429 0-5.917 5.918-5.917 15.512 0 21.429 5.917 5.918 15.512 5.918 21.429 0C5.917 15.512 5.917 5.918 0 0Z" style="stroke-width:15;stroke-linecap:round;stroke-linejoin:round;stroke-miterlimit:10;stroke-dasharray:none;stroke-opacity:1" transform="translate(186.44 339.23)" fill="none" stroke="#228522" stroke-width="15" stroke-linecap="round" stroke-linejoin="round" stroke-miterlimit="10" stroke-dasharray="none" stroke-opacity="" data-original="#000000" opacity="1" class=""></path><path d="m0 0 21.429 21.429" style="stroke-width:15;stroke-linecap:round;stroke-linejoin:round;stroke-miterlimit:10;stroke-dasharray:none;stroke-opacity:1" transform="translate(143.582 317.802)" fill="none" stroke="#228522" stroke-width="15" stroke-linecap="round" stroke-linejoin="round" stroke-miterlimit="10" stroke-dasharray="none" stroke-opacity="" data-original="#000000" opacity="1" class=""></path><path d="M0 0c11.835 11.835 11.835 31.022 0 42.857-11.834 11.835-31.022 11.835-42.857 0s-11.835-31.022 0-42.857S-11.834-11.835 0 0Z" style="stroke-width:15;stroke-linecap:round;stroke-linejoin:round;stroke-miterlimit:10;stroke-dasharray:none;stroke-opacity:1" transform="translate(143.582 274.944)" fill="none" stroke="#228522" stroke-width="15" stroke-linecap="round" stroke-linejoin="round" stroke-miterlimit="10" stroke-dasharray="none" stroke-opacity="" data-original="#000000" opacity="1" class=""></path><path d="M0 0c5.917 5.917 5.917 15.512 0 21.429-5.917 5.917-15.511 5.917-21.429 0-5.917-5.917-5.917-15.512 0-21.429C-15.511-5.918-5.917-5.918 0 0Z" style="stroke-width:15;stroke-linecap:round;stroke-linejoin:round;stroke-miterlimit:10;stroke-dasharray:none;stroke-opacity:1" transform="translate(83.875 236.666)" fill="none" stroke="#228522" stroke-width="15" stroke-linecap="round" stroke-linejoin="round" stroke-miterlimit="10" stroke-dasharray="none" stroke-opacity="" data-original="#000000" opacity="1" class=""></path><path d="m0 0-16.85-16.85" style="stroke-width:15;stroke-linecap:round;stroke-linejoin:round;stroke-miterlimit:10;stroke-dasharray:none;stroke-opacity:1" transform="translate(100.725 274.944)" fill="none" stroke="#228522" stroke-width="15" stroke-linecap="round" stroke-linejoin="round" stroke-miterlimit="10" stroke-dasharray="none" stroke-opacity="" data-original="#000000" opacity="1" class=""></path><path d="M0 0c-5.917 5.917-15.512 5.917-21.429 0-5.917-5.917-5.917-15.512 0-21.429 5.917-5.918 15.512-5.918 21.429 0C5.917-15.512 5.917-5.917 0 0Z" style="stroke-width:15;stroke-linecap:round;stroke-linejoin:round;stroke-miterlimit:10;stroke-dasharray:none;stroke-opacity:1" transform="translate(181.86 258.095)" fill="none" stroke="#228522" stroke-width="15" stroke-linecap="round" stroke-linejoin="round" stroke-miterlimit="10" stroke-dasharray="none" stroke-opacity="" data-original="#000000" opacity="1" class=""></path><path d="m0 0 16.85-16.85" style="stroke-width:15;stroke-linecap:round;stroke-linejoin:round;stroke-miterlimit:10;stroke-dasharray:none;stroke-opacity:1" transform="translate(143.582 274.944)" fill="none" stroke="#228522" stroke-width="15" stroke-linecap="round" stroke-linejoin="round" stroke-miterlimit="10" stroke-dasharray="none" stroke-opacity="" data-original="#000000" opacity="1" class=""></path><path d="M0 0h-125.26" style="stroke-width:15;stroke-linecap:round;stroke-linejoin:round;stroke-miterlimit:10;stroke-dasharray:none;stroke-opacity:1" transform="translate(348.935 365.098)" fill="none" stroke="#228522" stroke-width="15" stroke-linecap="round" stroke-linejoin="round" stroke-miterlimit="10" stroke-dasharray="none" stroke-opacity="" data-original="#000000" opacity="1" class=""></path><path d="M0 0h-125.26" style="stroke-width:15;stroke-linecap:round;stroke-linejoin:round;stroke-miterlimit:10;stroke-dasharray:none;stroke-opacity:1" transform="translate(348.935 332.772)" fill="none" stroke="#228522" stroke-width="15" stroke-linecap="round" stroke-linejoin="round" stroke-miterlimit="10" stroke-dasharray="none" stroke-opacity="" data-original="#000000" opacity="1" class=""></path><path d="M0 0h-74.752" style="stroke-width:15;stroke-linecap:round;stroke-linejoin:round;stroke-miterlimit:10;stroke-dasharray:none;stroke-opacity:1" transform="translate(298.427 300.447)" fill="none" stroke="#228522" stroke-width="15" stroke-linecap="round" stroke-linejoin="round" stroke-miterlimit="10" stroke-dasharray="none" stroke-opacity="" data-original="#000000" opacity="1" class=""></path><path d="M0 0h-34.346" style="stroke-width:15;stroke-linecap:round;stroke-linejoin:round;stroke-miterlimit:10;stroke-dasharray:none;stroke-opacity:1" transform="translate(258.02 247.919)" fill="none" stroke="#228522" stroke-width="15" stroke-linecap="round" stroke-linejoin="round" stroke-miterlimit="10" stroke-dasharray="none" stroke-opacity="" data-original="#000000" opacity="1" class=""></path><path d="M0 0h-34.346" style="stroke-width:15;stroke-linecap:round;stroke-linejoin:round;stroke-miterlimit:10;stroke-dasharray:none;stroke-opacity:1" transform="translate(348.935 247.919)" fill="none" stroke="#228522" stroke-width="15" stroke-linecap="round" stroke-linejoin="round" stroke-miterlimit="10" stroke-dasharray="none" stroke-opacity="" data-original="#000000" opacity="1" class=""></path><path d="M0 0v34.229l-30.34 17.893-30.339-17.893V0l30.339-17.893z" style="stroke-width:15;stroke-linecap:round;stroke-linejoin:round;stroke-miterlimit:10;stroke-dasharray:none;stroke-opacity:1" transform="translate(318.595 123.064)" fill="none" stroke="#228522" stroke-width="15" stroke-linecap="round" stroke-linejoin="round" stroke-miterlimit="10" stroke-dasharray="none" stroke-opacity="" data-original="#000000" opacity="1" class=""></path><path d="M0 0v34.229l-30.34 17.893-30.34-17.893V0l30.34-17.893z" style="stroke-width:15;stroke-linecap:round;stroke-linejoin:round;stroke-miterlimit:10;stroke-dasharray:none;stroke-opacity:1" transform="translate(348.935 70.942)" fill="none" stroke="#228522" stroke-width="15" stroke-linecap="round" stroke-linejoin="round" stroke-miterlimit="10" stroke-dasharray="none" stroke-opacity="" data-original="#000000" opacity="1" class=""></path><path d="M0 0v34.229l30.34 17.893 30.339-17.893V0L30.34-17.893Z" style="stroke-width:15;stroke-linecap:round;stroke-linejoin:round;stroke-miterlimit:10;stroke-dasharray:none;stroke-opacity:1" transform="translate(227.576 70.942)" fill="none" stroke="#228522" stroke-width="15" stroke-linecap="round" stroke-linejoin="round" stroke-miterlimit="10" stroke-dasharray="none" stroke-opacity="" data-original="#000000" opacity="1" class=""></path><path d="m0 0 14.781 7.78" style="stroke-width:15;stroke-linecap:round;stroke-linejoin:round;stroke-miterlimit:10;stroke-dasharray:none;stroke-opacity:1" transform="translate(318.595 157.294)" fill="none" stroke="#228522" stroke-width="15" stroke-linecap="round" stroke-linejoin="round" stroke-miterlimit="10" stroke-dasharray="none" stroke-opacity="" data-original="#000000" opacity="1" class=""></path><path d="M0 0v-13.225" style="stroke-width:15;stroke-linecap:round;stroke-linejoin:round;stroke-miterlimit:10;stroke-dasharray:none;stroke-opacity:1" transform="translate(257.916 53.05)" fill="none" stroke="#228522" stroke-width="15" stroke-linecap="round" stroke-linejoin="round" stroke-miterlimit="10" stroke-dasharray="none" stroke-opacity="" data-original="#000000" opacity="1" class=""></path><path d="M0 0h-125.26" style="stroke-width:15;stroke-linecap:round;stroke-linejoin:round;stroke-miterlimit:10;stroke-dasharray:none;stroke-opacity:1" transform="translate(183.268 175.186)" fill="none" stroke="#228522" stroke-width="15" stroke-linecap="round" stroke-linejoin="round" stroke-miterlimit="10" stroke-dasharray="none" stroke-opacity="" data-original="#000000" opacity="1" class=""></path><path d="M0 0h-125.26" style="stroke-width:15;stroke-linecap:round;stroke-linejoin:round;stroke-miterlimit:10;stroke-dasharray:none;stroke-opacity:1" transform="translate(183.268 142.861)" fill="none" stroke="#228522" stroke-width="15" stroke-linecap="round" stroke-linejoin="round" stroke-miterlimit="10" stroke-dasharray="none" stroke-opacity="" data-original="#000000" opacity="1" class=""></path><path d="M0 0h-74.752" style="stroke-width:15;stroke-linecap:round;stroke-linejoin:round;stroke-miterlimit:10;stroke-dasharray:none;stroke-opacity:1" transform="translate(132.76 110.536)" fill="none" stroke="#228522" stroke-width="15" stroke-linecap="round" stroke-linejoin="round" stroke-miterlimit="10" stroke-dasharray="none" stroke-opacity="" data-original="#000000" opacity="1" class=""></path><path d="M0 0h102.026" style="stroke-width:15;stroke-linecap:round;stroke-linejoin:round;stroke-miterlimit:10;stroke-dasharray:none;stroke-opacity:1" transform="translate(58.008 80.231)" fill="none" stroke="#228522" stroke-width="15" stroke-linecap="round" stroke-linejoin="round" stroke-miterlimit="10" stroke-dasharray="none" stroke-opacity="" data-original="#000000" opacity="1" class=""></path><path d="M0 0h-64.65v60.712c0 5.522 4.477 10 10 10H-10c5.523 0 10-4.478 10-10z" style="fill-opacity:1;fill-rule:nonzero;stroke:none" transform="translate(494.398 403.483)" fill="#228522" data-original="#fc8086" class="" opacity="1"></path><path d="M0 0h-20.204c5.579 0 10.102-4.522 10.102-10.102v-60.61h20.204v60.61C10.102-4.522 5.579 0 0 0" style="fill-opacity:1;fill-rule:nonzero;stroke:none" transform="translate(484.297 474.195)" fill="#228522" data-original="#fb636f" class="" opacity="1"></path><path d="m0 0-32.325-50.508L-64.65 0v345.476H0Z" style="fill-opacity:1;fill-rule:nonzero;stroke:none" transform="translate(494.398 58.008)" fill="#228522" data-original="#fce25c" class="" opacity="1"></path><path d="M0 0v-377.043l20.203 31.567V0Z" style="fill-opacity:1;fill-rule:nonzero;stroke:none" transform="translate(474.195 403.483)" fill="#228522" data-original="#fbd307" class="" opacity="1"></path><path d="M494.398 373.179h-64.65v30.305h64.65z" style="fill-opacity:1;fill-rule:nonzero;stroke:none" fill="#eaeaea" data-original="#eaeaea" class=""></path><path d="M474.195 373.179h20.203v30.305h-20.203z" style="fill-opacity:1;fill-rule:nonzero;stroke:none" fill="#cbcbcb" data-original="#cbcbcb" class=""></path><path d="M0 0v-236.278l-32.325-50.508-32.325 50.508v345.475H0V35.143" style="stroke-width:15;stroke-linecap:round;stroke-linejoin:round;stroke-miterlimit:10;stroke-dasharray:none;stroke-opacity:1" transform="translate(494.398 294.286)" fill="none" stroke="#228522" stroke-width="15" stroke-linecap="round" stroke-linejoin="round" stroke-miterlimit="10" stroke-dasharray="none" stroke-opacity="" data-original="#000000" opacity="1" class=""></path><path d="M0 0v60.61c0 5.579 4.522 10.102 10.102 10.102h44.447c5.578 0 10.101-4.523 10.101-10.102V0" style="stroke-width:15;stroke-linecap:round;stroke-linejoin:round;stroke-miterlimit:10;stroke-dasharray:none;stroke-opacity:1" transform="translate(429.748 403.483)" fill="none" stroke="#228522" stroke-width="15" stroke-linecap="round" stroke-linejoin="round" stroke-miterlimit="10" stroke-dasharray="none" stroke-opacity="" data-original="#000000" opacity="1" class=""></path><path d="M0 0h-64.65" style="stroke-width:15;stroke-linecap:round;stroke-linejoin:round;stroke-miterlimit:10;stroke-dasharray:none;stroke-opacity:1" transform="translate(494.398 373.179)" fill="none" stroke="#228522" stroke-width="15" stroke-linecap="round" stroke-linejoin="round" stroke-miterlimit="10" stroke-dasharray="none" stroke-opacity="" data-original="#000000" opacity="1" class=""></path></g></g></svg>